<svg height='100px' width='100px'  fill="#000000" xmlns="http://www.w3.org/2000/svg" xmlns:xlink="http://www.w3.org/1999/xlink" version="1.1" x="0px" y="0px" viewBox="0 0 100 100" enable-background="new 0 0 100 100" xml:space="preserve"><path d="M25.821,50.324c-3.652-2.161-4.856-6.872-2.697-10.519c2.162-3.649,6.87-4.857,10.521-2.695  c3.646,2.159,4.854,6.873,2.689,10.524C34.176,51.281,29.466,52.488,25.821,50.324z"></path><path d="M65.752,51.047c-0.328-1.991-2.21-3.337-4.195-3.007L27.52,53.676c-0.018,0.004-0.643,0.137-0.695,0.15  C16.3,56.977,9.594,77.08,9.375,83.854h21.746l5.692-17.303l20.983-0.018c2.017,0,3.647-1.637,3.647-3.652  c-0.004-2.02-1.639-3.648-3.65-3.648h-0.002l-19.224,0.015l24.179-4C64.738,54.914,66.083,53.035,65.752,51.047z"></path><path d="M8.582,68.314l-2.268-0.658c1.099-3.789,4.388-13.053,11.154-17.236l1.242,2.01C12.641,56.182,9.605,64.787,8.582,68.314  L8.582,68.314z"></path><path d="M2.913,62.996l-2.233-0.77c1.098-3.188,3.578-9.188,7.854-13.551l1.686,1.653C6.268,54.361,3.945,59.996,2.913,62.996  L2.913,62.996z"></path><polygon points="90.729,18.353 12.769,18.353 12.769,12.252 90.729,12.252 "></polygon><path d="M88.428,57.881l10.893-1.615l-3.383-2.615l3.142-4.646l-4.959,0.457l1.25-5.007l-4.937,4.188l-3.293-4.192l-0.233,12.386  c-2.347-1.695-4.351-1.281-6.187,0.652l-5.515,5.801V20.305h-2.365v45.503c-5.144,5.762-18.595,23.445-16.44,25.49  c2.181,2.074,19.59-12.672,24.841-17.928l-8.365-7.594l1.454-1.603l8.412,7.636l6.191-6.515c2.147-2.264,2.223-4.351-0.763-7.379  L88.428,57.881z"></path></svg>